<svg width="95" height="42" viewBox="0 0 95 42" fill="none" xmlns="http://www.w3.org/2000/svg">
<path d="M0.700117 21.8761C0.700992 21.8991 0.701322 21.9223 0.702251 21.9453C0.70347 21.9754 0.706311 22.0054 0.707745 22.0355C0.711468 22.1054 0.713381 22.1758 0.717798 22.2456C0.72177 22.3082 0.727156 22.3708 0.73199 22.4333C0.733943 22.4585 0.735626 22.4837 0.7377 22.5089C0.750311 22.6621 0.765392 22.8151 0.782292 22.968C0.787294 23.0128 0.7927 23.0575 0.798026 23.1023C0.810421 23.2075 0.823853 23.3126 0.837831 23.4176C0.85271 23.5287 0.86825 23.6398 0.884509 23.7507C0.893963 23.8152 0.903301 23.8797 0.913158 23.9441C0.9195 23.9855 0.925102 24.0271 0.931586 24.0685C0.936023 24.0968 0.941153 24.1249 0.945623 24.1532C0.983772 24.3955 1.02351 24.6374 1.06329 24.8793C1.2035 25.7312 1.36499 26.5812 1.53123 27.4284C1.54376 27.4923 1.55733 27.556 1.57009 27.6198C1.59409 27.7397 1.61818 27.8596 1.64313 27.9793C1.66642 28.0909 1.69084 28.2022 1.71507 28.3136C1.72805 28.3733 1.74034 28.4331 1.75362 28.4927C1.75911 28.5174 1.76515 28.5419 1.77069 28.5665C1.79447 28.6722 1.81916 28.7777 1.84397 28.8832C1.8674 28.9826 1.89141 29.0818 1.91589 29.1809C1.93948 29.2765 1.96339 29.3721 1.9881 29.4674C2.01255 29.5619 2.03836 29.656 2.06394 29.7502C2.08566 29.8301 2.10576 29.9106 2.12835 29.9903C2.13647 30.019 2.14614 30.0472 2.15442 30.0758C2.17755 30.1557 2.20281 30.2349 2.22718 30.3144C2.25864 30.4175 2.28932 30.5209 2.32271 30.6234C2.32437 30.6285 2.32579 30.6337 2.32746 30.6388C2.38693 30.8209 2.45054 31.0015 2.51702 31.1811C2.52585 31.2049 2.53563 31.2284 2.54457 31.2522C2.60316 31.4083 2.66405 31.5636 2.72737 31.7179C2.75853 31.7937 2.79132 31.8687 2.82356 31.944C2.86856 32.0492 2.9139 32.1543 2.96105 32.2586C2.97533 32.2901 2.9882 32.3223 3.00268 32.3538C3.02486 32.4021 3.04884 32.4496 3.07138 32.4977C3.09527 32.5487 3.11789 32.6004 3.14221 32.6512C3.16667 32.7023 3.19264 32.7528 3.21749 32.8037C3.26122 32.8933 3.30502 32.9828 3.34992 33.0719C3.38536 33.1424 3.42174 33.2125 3.45787 33.2827C3.66516 33.6853 3.88314 34.0824 4.11047 34.4737C4.13599 34.5178 4.16082 34.5624 4.18653 34.6065C4.19255 34.6168 4.19881 34.627 4.20484 34.6373C4.21243 34.6502 4.21963 34.6633 4.22724 34.6762C4.30549 34.8084 4.38438 34.9411 4.46381 35.0737C4.46696 35.0789 4.47011 35.0842 4.47326 35.0894C4.83689 35.6958 5.21862 36.2992 5.67055 36.8396C5.81544 37.0129 5.97201 37.1703 6.13688 37.3167C6.34675 37.5078 6.57265 37.682 6.82031 37.8339C7.05446 37.9774 7.29827 38.1044 7.54705 38.2214C7.55564 38.2254 7.56403 38.2297 7.57264 38.2337C7.58455 38.2393 7.59667 38.2444 7.6086 38.2499C7.76464 38.3218 7.92204 38.391 8.08149 38.4553C8.6346 38.6826 9.20483 38.8717 9.78044 39.0316C9.81876 39.0422 9.85716 39.0525 9.89552 39.0628C9.94423 39.076 9.99285 39.0897 10.0416 39.1025C10.2933 39.1686 10.5468 39.2253 10.8014 39.2752C10.8313 39.2812 10.8609 39.2886 10.8908 39.2943C10.9122 39.2983 10.9339 39.3011 10.9553 39.3051C11.0873 39.3295 11.2195 39.3514 11.352 39.3715C11.4104 39.3805 11.4689 39.3887 11.5274 39.3968C11.6713 39.4167 11.8154 39.4356 11.9598 39.451C11.9736 39.4525 11.9875 39.4536 12.0013 39.4551C12.1965 39.4757 12.3922 39.493 12.5884 39.5062C13.3311 39.556 14.078 39.5603 14.8221 39.5528C15.3583 39.5474 15.8944 39.5394 16.4306 39.5326C17.0654 39.5246 17.7002 39.5167 18.335 39.5087C18.4197 39.5078 18.5044 39.5068 18.5891 39.5058C19.6656 39.4935 20.7421 39.4811 21.8186 39.4688C22.9329 39.4561 24.0471 39.4433 25.1613 39.4305C26.1431 39.4192 27.1248 39.408 28.1066 39.3967C28.7874 39.389 29.4682 39.3812 30.149 39.3734C30.2377 39.3724 30.3264 39.371 30.4151 39.3698C30.6356 39.3712 30.8561 39.3729 31.0765 39.3738C31.6845 39.3761 32.2925 39.3783 32.9006 39.3806C32.9959 39.3809 33.0911 39.3813 33.1864 39.3817C33.1898 39.3817 33.1944 39.3812 33.1982 39.3811C33.2444 39.3814 33.2906 39.3817 33.3368 39.3819L33.3386 39.3823C33.3831 39.3987 33.4061 39.4744 33.4319 39.5191C33.4881 39.6166 33.5463 39.7129 33.6061 39.8083C33.6328 39.8508 33.6615 39.8921 33.689 39.9341C33.73 39.9984 33.7719 40.0622 33.815 40.1254C33.8324 40.1507 33.8502 40.1758 33.8679 40.2009C33.8953 40.24 33.9225 40.2791 33.9509 40.3178C33.9582 40.3277 33.9659 40.3377 33.9732 40.3476C34.2137 40.6728 34.4896 40.9997 34.8186 41.2449C34.8366 41.2583 34.8545 41.2718 34.8728 41.2846C34.8937 41.2996 34.9148 41.3142 34.9362 41.3285C34.9815 41.3585 35.0279 41.3869 35.0753 41.4134C35.0779 41.4148 35.0804 41.4166 35.083 41.4181C35.0916 41.4228 35.1013 41.4264 35.11 41.431C35.1429 41.4485 35.1757 41.4662 35.2097 41.4816C35.2221 41.4872 35.235 41.4915 35.2475 41.4968C35.2599 41.502 35.2725 41.5068 35.285 41.5118C35.3255 41.528 35.3671 41.5424 35.4091 41.5561C35.4343 41.5641 35.4592 41.5727 35.4848 41.5797C35.491 41.5815 35.4974 41.5828 35.5037 41.5846C35.8226 41.6732 36.1723 41.6962 36.4922 41.6529C36.6313 41.6425 36.8165 41.6151 36.8935 41.5177C36.9022 41.5073 36.91 41.4962 36.9158 41.4836L36.9165 41.4824C36.9218 41.4703 36.926 41.4575 36.9283 41.4437L36.9284 41.4418V41.4418L36.9288 41.4361C36.9304 41.4241 36.9305 41.4118 36.9305 41.3994C36.9304 41.2593 36.8377 41.0989 36.7884 40.9806C36.571 40.4587 36.3551 39.9369 36.143 39.4131C36.8057 39.4187 37.4684 39.4243 38.1311 39.4298C39.3058 39.4397 40.4805 39.4497 41.6551 39.4596C42.1613 39.4639 42.6679 39.4736 43.1742 39.4717C43.2508 39.4714 43.3274 39.4712 43.404 39.4709C43.6928 39.4704 43.9816 39.4688 44.2703 39.468C45.0936 39.4656 45.9167 39.4632 46.74 39.4608C47.5529 39.4585 48.3658 39.4561 49.1786 39.4538C49.5228 39.4528 49.8672 39.4541 50.2114 39.4508C50.3346 39.4496 50.4578 39.4469 50.5811 39.4448C50.6861 39.4442 50.7912 39.4442 50.8962 39.4432C51.388 39.4382 51.88 39.4272 52.3719 39.4191C53.4874 39.4009 54.6028 39.3828 55.7183 39.3646C56.8639 39.346 58.0095 39.3273 59.155 39.3087C59.7295 39.2993 60.3041 39.2882 60.8787 39.2807C61.5976 39.2754 62.3164 39.2701 63.0353 39.2648C63.5526 39.261 64.0694 39.262 64.5868 39.2656C65.0533 39.2688 65.5195 39.2757 65.9857 39.2839C66.5023 39.2945 67.0187 39.3061 67.5351 39.3258C68.6599 39.3686 69.7846 39.4113 70.9093 39.4541C71.5315 39.4777 72.1535 39.5013 72.7758 39.521C73.229 39.5354 73.6821 39.5495 74.1352 39.5621L74.1406 39.5623C74.5293 39.5763 74.9178 39.5828 75.3068 39.5901C75.3125 39.5902 75.3182 39.5902 75.3239 39.5903C75.3718 39.5913 75.4196 39.5928 75.4675 39.5937C76.2483 39.6083 77.0296 39.6155 77.8105 39.6104C78.1041 39.6085 78.3976 39.6045 78.6911 39.5992C78.7616 39.5981 78.8322 39.5975 78.9027 39.5964C78.9473 39.5957 78.9919 39.5936 79.0364 39.5927C79.1076 39.5913 79.1788 39.5886 79.25 39.5868C79.481 39.5806 79.7121 39.5729 79.943 39.5637C80.0699 39.5587 80.1968 39.5542 80.3236 39.5482C80.4126 39.544 80.5015 39.5372 80.5905 39.532C80.5987 39.5315 80.607 39.5312 80.6153 39.5308C80.6278 39.53 80.6404 39.5289 80.653 39.5282C80.8029 39.519 80.9526 39.5093 81.1023 39.4974C81.2727 39.4843 81.4431 39.4696 81.6132 39.4531C81.754 39.4392 81.8948 39.4245 82.0353 39.4081C82.0761 39.4033 82.117 39.3983 82.1578 39.3933C82.213 39.3865 82.2682 39.3806 82.3233 39.3733C82.3685 39.3674 82.4133 39.36 82.4583 39.3537C82.5307 39.3439 82.6033 39.3355 82.6755 39.325C82.6916 39.3227 82.7076 39.3199 82.7236 39.3175L82.7251 39.3172C83.1395 39.2555 83.5499 39.1728 83.9598 39.0878C83.987 39.0822 84.0142 39.077 84.0414 39.0714C84.3979 38.9983 84.7543 38.9265 85.112 38.8612C85.2003 38.8463 85.2886 38.832 85.377 38.8189C85.6291 38.7902 85.8797 38.7498 86.1281 38.6985C86.2228 38.6847 86.3175 38.6707 86.4122 38.6572C86.9914 38.5807 87.5732 38.5161 88.1514 38.4329C88.2605 38.4189 88.3692 38.4027 88.4776 38.385C88.4829 38.3841 88.4883 38.3835 88.4936 38.3826C88.5 38.3816 88.5063 38.3801 88.5127 38.379C88.7182 38.3444 88.922 38.3015 89.1212 38.2401C89.3778 38.161 89.6268 38.0558 89.8677 37.9342C89.8824 37.9269 89.897 37.9193 89.9117 37.9118C89.9695 37.882 90.0271 37.8521 90.0838 37.8202C90.1618 37.7767 90.2391 37.7316 90.3152 37.6843C90.322 37.6801 90.329 37.6763 90.3358 37.672C90.3384 37.6704 90.3409 37.6685 90.3435 37.6668C90.4048 37.628 90.4654 37.5882 90.5249 37.5472C90.5324 37.5421 90.5396 37.5365 90.5471 37.5313C90.5521 37.5278 90.5571 37.5241 90.5621 37.5205C90.9678 37.2352 91.3231 36.8905 91.6104 36.4853C91.6199 36.4719 91.6285 36.4581 91.6379 36.4446C91.6399 36.4416 91.6419 36.4385 91.644 36.4355C91.6862 36.375 91.7266 36.313 91.766 36.25C91.7712 36.2416 91.777 36.2338 91.7822 36.2254C91.7892 36.214 91.7953 36.2022 91.8023 36.1908C91.8386 36.1308 91.8739 36.0702 91.908 36.0089C91.9168 35.9932 91.9258 35.9775 91.9344 35.9617C91.9763 35.8848 92.0168 35.8072 92.0554 35.7287L92.0569 35.7256C92.093 35.6521 92.1272 35.5775 92.1607 35.5027C92.1788 35.4621 92.1962 35.4213 92.2135 35.3804C92.2274 35.3479 92.2411 35.3152 92.2546 35.2824C92.2749 35.2327 92.295 35.1829 92.3144 35.1329C92.3218 35.1139 92.3289 35.0947 92.3362 35.0756C92.3569 35.0209 92.3775 34.9663 92.3972 34.9114C92.404 34.8926 92.4097 34.8736 92.4163 34.8548C92.454 34.7479 92.4905 34.6405 92.5248 34.5325C92.5312 34.5124 92.5376 34.4924 92.5439 34.4723C92.5801 34.3562 92.6153 34.2397 92.6485 34.1231C92.6494 34.1199 92.6503 34.1167 92.6512 34.1135C92.6929 33.9666 92.7327 33.8191 92.7719 33.6714C92.926 33.0921 93.0623 32.5077 93.1852 31.9212C93.2015 31.8431 93.2159 31.7646 93.2317 31.6864C93.2452 31.6204 93.2592 31.5545 93.2725 31.4884C93.2972 31.3653 93.3208 31.242 93.3441 31.1186C93.3514 31.0801 93.3586 31.0416 93.3658 31.0031C93.4228 30.6958 93.4761 30.3879 93.5249 30.0793V30.0793C93.5347 30.0173 93.5439 29.9551 93.5534 29.8931C93.5604 29.8474 93.5679 29.8019 93.5748 29.7562C93.5766 29.7445 93.5779 29.7328 93.5797 29.7211C93.5837 29.6936 93.5883 29.6662 93.5922 29.6387C93.6127 29.4963 93.6312 29.3538 93.6499 29.2113C93.7017 28.8238 93.7492 28.4358 93.7883 28.0469C93.8127 27.8039 93.8339 27.5605 93.8541 27.3171C93.8553 27.3036 93.8568 27.2901 93.858 27.2766C93.8659 27.1856 93.8726 27.0944 93.8799 27.0033C93.896 26.7962 93.9114 26.5891 93.9252 26.382C93.9271 26.354 93.9295 26.326 93.9313 26.298C93.9322 26.2849 93.9327 26.2718 93.9335 26.2587C93.952 25.9723 93.9673 25.6857 93.9814 25.399C93.9846 25.3337 93.9878 25.2684 93.9909 25.203C93.9927 25.1633 93.9949 25.1235 93.9967 25.0838C93.9981 25.0506 93.9993 25.0175 94.0008 24.9843C94.0099 24.7832 94.0192 24.5822 94.0282 24.3811C94.0514 23.8641 94.0674 23.3466 94.0801 22.8292C94.0807 22.8091 94.0811 22.7889 94.0816 22.7687L94.0817 22.7655C94.082 22.7545 94.0822 22.7435 94.0825 22.7325C94.0978 22.1187 94.1141 21.505 94.1158 20.8911C94.1175 20.2968 94.0994 19.7022 94.0846 19.1082C94.0845 19.1026 94.0844 19.097 94.0842 19.0914C94.0842 19.0886 94.0841 19.0859 94.084 19.0832C94.071 18.56 94.0579 18.0362 94.0344 17.5133C94.029 17.3938 94.0233 17.2743 94.0178 17.1548C93.9955 16.6333 93.9699 16.112 93.9391 15.591C93.9389 15.5882 93.9387 15.5854 93.9385 15.5826C93.9378 15.5695 93.9372 15.5563 93.9364 15.5432C93.9342 15.5053 93.9309 15.4675 93.9285 15.4297C93.9161 15.2291 93.9021 15.0286 93.8868 14.8282C93.8816 14.7593 93.8763 14.6905 93.8708 14.6217C93.8511 14.379 93.83 14.1363 93.8067 13.894C93.8064 13.8907 93.8061 13.8874 93.8058 13.8841C93.8047 13.8722 93.8031 13.8603 93.8019 13.8484C93.7855 13.6814 93.7684 13.5144 93.7499 13.3476C93.7415 13.2718 93.7319 13.1961 93.7231 13.1203C93.7149 13.0501 93.7068 12.9799 93.6982 12.9097C93.6657 12.6456 93.631 12.3817 93.5924 12.1184C93.5915 12.1121 93.5908 12.1059 93.5899 12.0996C93.5781 12.0191 93.5655 11.9387 93.5532 11.8582C93.544 11.798 93.5346 11.7378 93.5252 11.6776V11.6776C93.5219 11.6565 93.5187 11.6354 93.5154 11.6143C93.4518 11.2148 93.3822 10.8161 93.303 10.4197C93.1865 9.83648 93.0658 9.2536 92.9218 8.67645C92.9178 8.66068 92.9138 8.64491 92.9099 8.62914C92.7776 8.08497 92.6357 7.54086 92.4543 7.01081C92.4494 6.99655 92.4453 6.98207 92.4404 6.96784C92.4346 6.95113 92.4284 6.93452 92.4225 6.91782C92.4146 6.89536 92.4065 6.87296 92.3985 6.85054C92.3714 6.77544 92.3438 6.70055 92.3149 6.62613C92.3135 6.62257 92.3123 6.61895 92.3109 6.6154L92.3091 6.61102C92.212 6.36171 92.1031 6.11674 91.9791 5.87985C91.9766 5.87511 91.9741 5.87039 91.9716 5.86565C91.9328 5.7919 91.8923 5.71904 91.8504 5.64712C91.8471 5.64137 91.8438 5.63557 91.8404 5.62983C91.7915 5.54661 91.7411 5.4642 91.6876 5.38378C91.6448 5.31938 91.5998 5.25676 91.5537 5.19504C91.5436 5.1815 91.5331 5.16828 91.5229 5.15487C91.4902 5.11162 91.4561 5.06937 91.4217 5.02734C91.3948 4.99475 91.368 4.96204 91.3401 4.93031C91.3327 4.92188 91.325 4.91382 91.3176 4.90546C91.2772 4.85985 91.2374 4.81384 91.1949 4.77C91.1107 4.6833 91.0213 4.60146 90.9297 4.52189C90.9281 4.52048 90.9264 4.5191 90.9248 4.51769C90.8664 4.46706 90.8061 4.41843 90.7448 4.3708C90.7203 4.35162 90.6953 4.33303 90.6703 4.31432C90.6553 4.3032 90.6409 4.29151 90.6258 4.28056C90.6162 4.27365 90.606 4.26758 90.5965 4.26073C90.516 4.20277 90.434 4.14708 90.3501 4.09396C90.3458 4.0912 90.3415 4.08833 90.3372 4.08559C90.2415 4.02541 90.1446 3.96724 90.0454 3.91339C90.0143 3.89656 89.9838 3.87881 89.9525 3.86261C89.9453 3.85882 89.9379 3.85538 89.9306 3.85162C89.7068 3.73554 89.475 3.63503 89.2376 3.55416C88.9191 3.44568 88.5904 3.38644 88.2591 3.34079C88.03 3.30743 87.7995 3.28054 87.5693 3.25356C87.0876 3.19334 86.6069 3.1284 86.1266 3.05795L86.1229 3.05726C85.9919 3.03322 85.8613 3.00669 85.7297 2.98529C85.7199 2.9837 85.7102 2.9815 85.7004 2.97999C85.6718 2.97558 85.643 2.97239 85.6144 2.96841C85.5611 2.96104 85.5079 2.95368 85.4546 2.94692C85.3756 2.9369 85.2969 2.92481 85.2182 2.91302C84.8926 2.85542 84.568 2.79314 84.2437 2.72661C84.0482 2.68652 83.8529 2.64689 83.6574 2.60811C83.4986 2.57659 83.3396 2.54658 83.1804 2.51779C83.0895 2.50138 82.9987 2.48447 82.9076 2.46964C82.8853 2.46601 82.8633 2.4614 82.841 2.45788C82.8058 2.45232 82.7703 2.44811 82.735 2.44274C82.7311 2.44147 82.7273 2.44019 82.7234 2.43892V2.44109C82.7085 2.43884 82.6936 2.43692 82.6786 2.4347C82.6165 2.42534 82.5546 2.41477 82.4923 2.40627C82.4541 2.40105 82.4158 2.39673 82.3776 2.39171C82.3027 2.38189 82.2278 2.37229 82.1528 2.3632C82.0689 2.35296 81.9848 2.34351 81.9008 2.33427C81.8182 2.32516 81.7358 2.31572 81.6531 2.30746C81.4932 2.29163 81.3331 2.27697 81.1728 2.26429C81.1468 2.2622 81.1207 2.2606 81.0946 2.25858C80.9871 2.25029 80.8796 2.242 80.772 2.23506C80.7386 2.23291 80.7051 2.23192 80.6717 2.22987C80.6446 2.22823 80.6176 2.22592 80.5906 2.22435C80.3863 2.21252 80.1818 2.20256 79.9774 2.19386C79.8696 2.18928 79.7617 2.18576 79.6539 2.18195C79.5001 2.17656 79.3463 2.17169 79.1925 2.16772C79.1274 2.16605 79.0623 2.16316 78.9972 2.16171C78.9541 2.16074 78.9109 2.16045 78.8678 2.15955C78.8171 2.1585 78.7663 2.15797 78.7156 2.15702C78.5666 2.15437 78.4175 2.15179 78.2685 2.15012C78.2506 2.14991 78.2327 2.15006 78.2148 2.14988C77.9273 2.14641 77.6398 2.14426 77.3524 2.14594C77.3467 2.14597 77.341 2.146 77.3354 2.14603C77.0359 2.14774 76.7364 2.14923 76.437 2.15158C76.284 2.15284 76.1309 2.15231 75.9779 2.15442C75.845 2.15621 75.7121 2.15955 75.5792 2.16183C75.5559 2.16224 75.5326 2.16226 75.5093 2.1627C75.081 2.17064 74.6526 2.17582 74.2245 2.19127C74.1689 2.19328 74.1133 2.19528 74.0577 2.19729C73.9405 2.20073 73.8233 2.20331 73.706 2.20703C73.0469 2.228 72.3877 2.24741 71.7286 2.27245C70.6847 2.31216 69.6409 2.35176 68.597 2.39147C68.3758 2.39987 68.1545 2.40917 67.9332 2.41839C67.8099 2.42284 67.6866 2.42728 67.5633 2.43174C67.2551 2.44277 66.947 2.45502 66.6385 2.46108C66.617 2.46151 66.5954 2.46187 66.5738 2.4623C65.8291 2.47657 65.0847 2.48623 64.3399 2.49226C63.9625 2.49442 63.5852 2.49585 63.2078 2.49308C62.6043 2.48868 62.0009 2.48421 61.3974 2.47977C61.0801 2.4772 60.7628 2.47462 60.4454 2.46968C60.4149 2.46918 60.3844 2.46889 60.3539 2.46838C59.5407 2.45537 58.7275 2.44234 57.9143 2.42943C57.4847 2.42255 57.0553 2.41569 56.6257 2.40881C56.3963 2.40514 56.1668 2.40145 55.9373 2.39777C55.0642 2.38377 54.1909 2.36975 53.3178 2.35574C52.6517 2.34512 51.9855 2.3344 51.3194 2.32376C51.1809 2.32139 51.0424 2.3189 50.9039 2.31641C50.9014 2.31565 50.8992 2.3148 50.8967 2.31405L50.8978 2.31629C50.7171 2.31304 50.5365 2.31052 50.3558 2.30833C50.3115 2.30774 50.2672 2.3067 50.2229 2.30621C50.0306 2.30402 49.8383 2.30378 49.646 2.30369C49.2489 2.30231 48.8518 2.30161 48.4547 2.30081C47.9527 2.29933 47.4507 2.29787 46.9487 2.29639C46.2196 2.29428 45.4906 2.29217 44.7615 2.29006C44.6521 2.28975 44.5427 2.28943 44.4333 2.28912C44.0267 2.28798 43.6201 2.28537 43.2134 2.28561C43.1849 2.28563 43.1564 2.28531 43.1279 2.28536C42.9371 2.28563 42.7464 2.28741 42.5557 2.28939C42.1536 2.29262 41.7515 2.29658 41.3494 2.30021C40.8162 2.3047 40.283 2.30919 39.7497 2.31371C38.9253 2.32067 38.1011 2.32762 37.2767 2.33456C36.8987 2.33776 36.5208 2.34096 36.1428 2.34415C36.3367 1.86531 36.5338 1.388 36.7325 0.910995C36.7538 0.860908 36.7745 0.810684 36.7954 0.760361C36.8465 0.642525 36.9321 0.488296 36.9303 0.353165C36.9302 0.347328 36.9299 0.341553 36.9295 0.335793C36.929 0.329124 36.9296 0.322205 36.9286 0.315659C36.9277 0.309486 36.9252 0.304428 36.9236 0.298683C36.9225 0.29435 36.923 0.289658 36.9215 0.285416C36.9204 0.28215 36.9184 0.279388 36.9171 0.27623L36.9146 0.271172C36.9085 0.25869 36.9006 0.247658 36.8917 0.237343C36.8088 0.133217 36.6066 0.106285 36.4482 0.0985031C36.1052 0.058876 35.7319 0.0938721 35.401 0.203552C35.3779 0.21122 35.3553 0.219582 35.3327 0.227974C35.3055 0.237793 35.2782 0.247025 35.2515 0.258125C35.2028 0.278366 35.1549 0.300591 35.1081 0.325348C35.1032 0.327942 35.0985 0.330986 35.0936 0.333626C35.0902 0.335472 35.0864 0.336845 35.083 0.338707C35.0744 0.34343 35.0664 0.349197 35.0579 0.354042C35.0101 0.381157 34.9629 0.409264 34.9172 0.439903L34.913 0.442711C34.8589 0.479118 34.8066 0.518349 34.7553 0.559044C34.2512 0.950317 33.8626 1.52726 33.5419 2.05238C33.4873 2.14172 33.4343 2.23207 33.3834 2.32352C33.3525 2.37903 33.3585 2.3723 33.3053 2.37492C33.1664 2.37579 33.0274 2.37666 32.8885 2.37753C32.8562 2.37718 32.824 2.3768 32.7919 2.37691C32.1701 2.37923 31.5482 2.38155 30.9264 2.38386C30.7572 2.38448 30.5881 2.38558 30.4189 2.38662C30.3454 2.38571 30.2719 2.38483 30.1984 2.38399C29.5343 2.37638 28.8704 2.36877 28.2064 2.36115C27.2332 2.35002 26.2601 2.33887 25.2869 2.32774C24.1747 2.31494 23.0625 2.30225 21.9502 2.28946C20.8658 2.27699 19.7813 2.26463 18.6968 2.25217C18.4633 2.2495 18.2297 2.24683 17.9962 2.24415C17.4409 2.23718 16.8857 2.23022 16.3304 2.22324C15.823 2.21685 15.3155 2.20857 14.808 2.20416C14.5852 2.20222 14.3623 2.20209 14.1394 2.20332V2.20332C14.1 2.20353 14.0607 2.20435 14.0213 2.2047C13.9197 2.20558 13.818 2.20644 13.7163 2.20824C13.628 2.20979 13.5397 2.21242 13.4514 2.21481C13.36 2.2173 13.2686 2.21819 13.1772 2.22162C13.1256 2.22355 13.0741 2.22752 13.0226 2.22984C12.8626 2.23671 12.7026 2.24496 12.5428 2.25538C12.5127 2.25735 12.4825 2.25832 12.4524 2.26042C12.1844 2.2791 11.9174 2.30698 11.6515 2.34197C11.5993 2.34883 11.5471 2.35509 11.4951 2.36258C11.4897 2.36333 11.4844 2.3642 11.479 2.36496C11.3613 2.38202 11.244 2.40125 11.1269 2.42154C11.0815 2.42925 11.0358 2.43515 10.9905 2.44345C10.9566 2.44967 10.9231 2.45784 10.8892 2.46433C10.7614 2.48886 10.6339 2.51476 10.5069 2.54315C10.4566 2.55429 10.4065 2.56632 10.3563 2.57805C10.2069 2.61293 10.0579 2.64945 9.90969 2.68942C9.30096 2.85353 8.69544 3.04974 8.10963 3.28908C8.1006 3.29277 8.09144 3.29617 8.08241 3.29988C8.07807 3.30164 8.07379 3.30354 8.06945 3.3053C7.66411 3.46973 7.26765 3.65646 6.89246 3.87926C6.58323 4.0629 6.30514 4.27827 6.05116 4.52011C6.01287 4.55657 5.97487 4.59335 5.93769 4.63103C5.92524 4.64347 5.91292 4.65609 5.90059 4.66869C5.79986 4.77155 5.70174 4.87794 5.60932 4.99216C5.06891 5.65999 4.61851 6.40988 4.18631 7.1504C4.16556 7.18596 4.14569 7.22209 4.12506 7.25772C4.04246 7.40038 3.96033 7.54333 3.87987 7.68732C3.85901 7.72471 3.83858 7.76234 3.8179 7.79984C3.74794 7.92629 3.67925 8.05346 3.61127 8.181C3.56497 8.26826 3.51905 8.3557 3.47372 8.44345C3.43276 8.52247 3.39261 8.60188 3.35255 8.68135C3.30308 8.77951 3.2538 8.87776 3.20558 8.97649C3.19503 8.99808 3.18392 9.01942 3.17343 9.04103C3.12717 9.13639 3.0835 9.23299 3.03889 9.32915C3.01563 9.37937 2.99077 9.42887 2.96793 9.47928C2.96458 9.48668 2.96168 9.49423 2.95834 9.50163C2.89331 9.64581 2.83075 9.79108 2.76964 9.93696L2.76819 9.9405C2.61622 10.3035 2.47619 10.6714 2.35139 11.0446C2.32582 11.1211 2.30328 11.1984 2.27896 11.2752C2.27486 11.2882 2.27082 11.3011 2.26675 11.3141C2.21757 11.469 2.17185 11.6251 2.1268 11.7814C2.11449 11.8242 2.10055 11.8664 2.08853 11.9092C2.07145 11.9701 2.05637 12.0317 2.03981 12.0928C2.03288 12.1184 2.02627 12.144 2.01944 12.1696C1.85628 12.78 1.71726 13.3978 1.59353 14.0176C1.571 14.1305 1.54779 14.2432 1.52616 14.3561C1.51911 14.3929 1.51227 14.4298 1.50523 14.4666C1.44513 14.7753 1.38627 15.0842 1.32859 15.3931C1.31996 15.4393 1.312 15.4857 1.30343 15.5319C1.278 15.6685 1.25313 15.8051 1.22826 15.9418V15.9418C1.1995 16.0999 1.17082 16.2581 1.14306 16.4163C1.13002 16.4907 1.11774 16.5651 1.10497 16.6395C1.08266 16.7693 1.05987 16.8991 1.03848 17.0291C1.01683 17.1606 0.995521 17.2922 0.974487 17.4238C0.96665 17.4729 0.957709 17.5218 0.950007 17.5709C0.941167 17.6274 0.933868 17.684 0.925351 17.7405C0.898238 17.918 0.871933 18.0956 0.847843 18.2735C0.840282 18.3292 0.833125 18.3851 0.825954 18.441C0.810509 18.5612 0.796188 18.6817 0.782844 18.8022C0.772805 18.893 0.763265 18.9839 0.75466 19.0748C0.748547 19.139 0.742649 19.2033 0.73731 19.2676C0.726685 19.3955 0.717178 19.5235 0.709967 19.6518C0.709139 19.6665 0.708931 19.6814 0.708136 19.6961C0.707409 19.7103 0.705907 19.7245 0.705227 19.7388C0.702278 19.8005 0.701114 19.8624 0.69869 19.9242C0.670304 20.5729 0.670486 21.227 0.700117 21.8761ZM24.0463 14.2678C24.0504 14.2521 24.0548 14.2365 24.059 14.2208C24.0949 14.0856 24.1323 13.9509 24.171 13.8165C24.1744 13.8046 24.1779 13.7928 24.1813 13.7809C24.265 13.4925 24.3546 13.2058 24.4479 12.9203C24.5982 12.463 24.7607 12.0104 24.9291 11.5596C24.9594 11.4793 24.9904 11.3992 25.0213 11.3191C25.0617 11.2133 25.1026 11.1078 25.1443 11.0025C25.1827 10.9057 25.2213 10.8091 25.2607 10.7127C25.3673 10.4499 25.4777 10.1886 25.5918 9.92886C25.6054 9.89776 25.6189 9.86662 25.6327 9.83557C25.6664 9.75958 25.7005 9.68381 25.7349 9.60814C25.7661 9.53933 25.7977 9.47073 25.8295 9.40219C25.8543 9.34887 25.879 9.29556 25.9042 9.24242C25.9489 9.14799 25.9946 9.05402 26.0408 8.96027C26.059 8.92324 26.0767 8.886 26.0951 8.84908C26.1543 8.73058 26.2148 8.6128 26.2764 8.49551C26.3065 8.43804 26.3375 8.38106 26.3682 8.32391C26.4061 8.25351 26.4442 8.18326 26.4829 8.11336C26.5053 8.07297 26.528 8.03278 26.5507 7.99257C26.5572 7.98097 26.5637 7.96931 26.5702 7.95773C26.6233 7.86408 26.6775 7.77102 26.7323 7.67836C26.7483 7.65137 26.7639 7.62421 26.7801 7.59732C26.8017 7.56127 26.8241 7.5255 26.846 7.48951C27.0855 7.09664 27.3383 6.71153 27.6047 6.33644C27.7248 6.16733 27.8658 6.00958 27.9798 5.83706C28.0051 5.79892 28.0178 5.73317 28.0477 5.71513L29.542 6.00479L33.3553 6.74394L34.2521 6.91776L36.1411 7.28393L41.4803 8.31885V8.31885C41.2246 9.11309 40.9757 9.90763 40.7808 10.7194C40.5839 11.5397 40.4363 12.3701 40.2993 13.2022C40.1673 14.0034 40.0614 14.8097 39.9691 15.6164C39.8734 16.4526 39.7975 17.2901 39.7453 18.13C39.6952 18.936 39.674 19.7441 39.6702 20.5515C39.6662 21.3714 39.6729 22.1925 39.7131 23.0116C39.7552 23.8709 39.8207 24.7271 39.9076 25.583C39.9883 26.3767 40.0878 27.1699 40.2079 27.9586C40.3357 28.7972 40.4711 29.6352 40.6508 30.4645C40.8208 31.2488 41.0264 32.0254 41.2724 32.7893C41.342 33.0054 41.4116 33.2216 41.4811 33.4377L41.4794 33.4381L36.1415 34.4728L34.2527 34.8389L33.3555 35.0128L30.4859 35.569L29.5421 35.752L28.0318 36.0447V36.0447C28.0247 36.0389 28.017 35.9877 28.0129 35.9781C28.0021 35.9526 27.9868 35.9295 27.971 35.9069C27.8409 35.7205 27.6934 35.545 27.5614 35.3592C27.5343 35.321 27.508 35.2821 27.4814 35.2435C27.4335 35.1738 27.3858 35.1041 27.3387 35.034C27.3082 34.9883 27.2776 34.9428 27.2472 34.897C27.1906 34.8116 27.1346 34.726 27.0793 34.6396C26.9958 34.509 26.9134 34.3778 26.8331 34.2453C26.7424 34.096 26.6534 33.9457 26.5671 33.7939C26.5616 33.7842 26.5563 33.7744 26.5509 33.7647C26.5354 33.7373 26.5202 33.7098 26.5049 33.6824C26.4557 33.594 26.407 33.5054 26.3591 33.4163C26.3381 33.377 26.3172 33.3377 26.2964 33.2984C26.1814 33.0797 26.0715 32.8586 25.9646 32.636C25.9245 32.5526 25.8844 32.4692 25.8453 32.3853C25.7917 32.2705 25.7386 32.1557 25.6868 32.0401C25.6356 31.9262 25.5857 31.8118 25.5358 31.6972C25.5167 31.6533 25.497 31.6096 25.478 31.5655C25.4616 31.5275 25.446 31.4892 25.4297 31.4511C25.2834 31.1048 25.1436 30.7555 25.0087 30.4045C24.9768 30.3213 24.944 30.2384 24.9128 30.1549C24.9038 30.1301 24.8948 30.1053 24.8856 30.0805C24.8121 29.8832 24.7394 29.6857 24.6689 29.4873C24.666 29.4791 24.6631 29.471 24.6602 29.4628C24.5841 29.248 24.51 29.0325 24.4381 28.8163C24.3464 28.5405 24.2581 28.2636 24.1767 27.9845C23.9993 27.377 23.8542 26.7626 23.7443 26.1395C23.7263 26.0374 23.7102 25.9348 23.6938 25.8324C23.6238 25.3844 23.5672 24.9346 23.5151 24.4842C23.514 24.4741 23.5129 24.4639 23.5118 24.4538C23.5026 24.373 23.4953 24.2921 23.4867 24.2112C23.4226 23.5726 23.3679 22.9336 23.328 22.2929C23.3139 22.0593 23.3018 21.8256 23.2931 21.5917C23.2752 21.1122 23.2724 20.6346 23.2867 20.1553C23.2885 20.1032 23.2898 20.051 23.292 19.9989C23.294 19.9505 23.296 19.902 23.2983 19.8536C23.3034 19.7394 23.3094 19.6252 23.3163 19.511C23.3184 19.4753 23.3204 19.4397 23.3226 19.4041C23.3276 19.326 23.333 19.2479 23.3385 19.1699C23.3491 19.0166 23.3604 18.8634 23.3726 18.7103C23.3761 18.6673 23.3793 18.6242 23.3829 18.5812C23.3912 18.4763 23.4012 18.3715 23.4102 18.2666C23.432 18.0155 23.4565 17.7647 23.4836 17.5141C23.4838 17.5119 23.484 17.5098 23.4843 17.5076C23.5159 17.2139 23.5513 16.9206 23.5895 16.6276C23.5967 16.5739 23.6035 16.5202 23.611 16.4665C23.6142 16.4431 23.6179 16.4198 23.6212 16.3964C23.6452 16.2244 23.672 16.0528 23.7009 15.8814C23.7129 15.8099 23.7247 15.7384 23.7375 15.6671C23.7459 15.621 23.7546 15.575 23.7633 15.529C23.7827 15.4256 23.8029 15.3224 23.8241 15.2194C23.8308 15.1869 23.8374 15.1545 23.8443 15.122C23.8702 14.9992 23.8974 14.8766 23.9259 14.7544C23.9298 14.7374 23.9335 14.7204 23.9375 14.7035C23.9718 14.5577 24.0082 14.4125 24.0463 14.2678ZM50.4107 4.93081L52.1245 7.84032C51.8065 7.82841 51.4884 7.81686 51.1704 7.80509C50.6731 7.78675 50.1758 7.7684 49.6785 7.75005C49.3831 7.73891 49.0877 7.72729 48.7923 7.71485C48.661 7.70905 48.5297 7.70367 48.3985 7.6971C48.1003 7.68328 47.8022 7.66737 47.5041 7.65155C47.0188 7.62733 46.5338 7.59763 46.0487 7.56855C45.8218 7.55421 45.595 7.53955 45.3683 7.52324C45.3606 7.52269 45.353 7.52219 45.3453 7.52164C45.2116 7.51195 45.0778 7.50184 44.9441 7.49109C44.7203 7.4731 44.4968 7.45256 44.2736 7.42852C44.2668 7.42778 44.2599 7.42717 44.2531 7.42642C44.1816 7.41865 44.1103 7.40981 44.0389 7.40114C43.8721 7.38124 43.7057 7.3572 43.5393 7.33343C43.0991 7.26826 42.661 7.19305 42.2232 7.11244C42.1999 7.10811 42.1765 7.10384 42.1532 7.09948C41.9588 7.06337 41.7646 7.02534 41.5707 6.98661C41.5025 6.97301 41.4345 6.95933 41.3664 6.94548C41.176 6.90673 40.9857 6.86757 40.7956 6.82742C40.5837 6.78263 40.3717 6.73872 40.1597 6.69438C40.065 6.67455 39.9704 6.65368 39.8757 6.63355C39.7101 6.59835 39.5444 6.56349 39.3792 6.52638C38.8288 6.40282 38.2786 6.27919 37.7284 6.15562C37.6866 6.14619 37.6448 6.13668 37.603 6.12727C37.1157 6.01759 36.6283 5.90852 36.1411 5.79834L36.1411 4.62894L50.4107 4.93081ZM67.5481 5.29333L72.2971 5.3938V5.3938C72.2025 5.43422 72.1083 5.47471 72.0139 5.51508C72.0009 5.52056 71.9871 5.52586 71.9743 5.53139C71.8596 5.58074 71.7448 5.63007 71.6301 5.67942C71.1721 5.87516 70.7141 6.07077 70.2566 6.2676C69.3908 6.64012 68.5251 7.01253 67.6592 7.38505C67.4384 7.48008 67.2184 7.57591 66.9952 7.66263C66.572 7.82454 66.1423 7.93565 65.6896 7.98978C65.5814 8.00274 65.4727 8.01258 65.3641 8.02263C65.3509 8.02268 65.3378 8.02272 65.3246 8.02277C65.133 8.02347 64.9415 8.02417 64.7499 8.02488C64.7313 8.02468 64.7127 8.02417 64.6942 8.02409C63.7545 8.01978 62.8146 8.01548 61.8749 8.01118C61.5986 8.0099 61.3222 8.00864 61.0459 8.00737C60.4232 8.00279 59.8006 7.99823 59.1779 7.99361C59.0818 7.99293 58.9857 7.99229 58.8896 7.99159C58.6573 7.98728 58.425 7.98226 58.1927 7.97831C57.9239 7.97374 57.6551 7.96918 57.3863 7.96462C57.0825 7.95832 56.7786 7.95204 56.4748 7.94574C55.9381 7.9346 55.4015 7.9235 54.8648 7.91238C54.8602 7.90796 54.856 7.90229 54.8521 7.89363L54.2389 5.01179L67.5481 5.29333ZM72.2974 36.363L67.5481 36.4634L54.2389 36.745L54.853 33.8588C54.8563 33.8525 54.8604 33.8481 54.865 33.8447C55.3368 33.8349 55.8086 33.8252 56.2803 33.8154C56.6825 33.8071 57.0847 33.7987 57.4869 33.7904C57.9308 33.7829 58.3746 33.7753 58.8185 33.7678C58.9349 33.7658 59.0512 33.7653 59.1676 33.7636C59.8392 33.7587 60.5107 33.7537 61.1824 33.7488C61.6618 33.7466 62.1411 33.7444 62.6206 33.7422C63.3321 33.739 64.0436 33.7357 64.7552 33.7324C64.9381 33.7331 65.121 33.7338 65.304 33.7344C65.3113 33.7347 65.3186 33.7353 65.3259 33.7356C65.3611 33.737 65.3963 33.7388 65.4315 33.741C65.5176 33.7491 65.6038 33.7567 65.6896 33.767C66.1813 33.8258 66.6464 33.9488 67.1049 34.1347C67.3266 34.2245 67.5465 34.3194 67.7662 34.4147C67.8368 34.4457 67.9074 34.4766 67.9779 34.5069C68.1882 34.5973 68.3985 34.6876 68.6088 34.778C69.0857 34.983 69.5625 35.1881 70.0393 35.3932C70.6843 35.6705 71.3293 35.948 71.9743 36.2254C71.9968 36.2351 72.0206 36.2444 72.0436 36.2539C72.1282 36.2903 72.2128 36.3266 72.2974 36.363ZM36.1415 37.1278L36.1415 35.9586C36.5643 35.863 36.9874 35.7683 37.4103 35.6732C38.0515 35.5289 38.6927 35.3846 39.334 35.2404C39.3479 35.2373 39.3619 35.2341 39.3759 35.231C39.5713 35.1871 39.7674 35.1458 39.9635 35.1043C40.0707 35.0815 40.1778 35.0582 40.2851 35.0357C40.5196 34.9868 40.7543 34.9383 40.9886 34.8887C41.5109 34.7782 42.0356 34.6794 42.5605 34.5822C42.6861 34.5589 42.8119 34.537 42.9378 34.5158C42.9512 34.5136 42.9646 34.5111 42.978 34.5089C43.0995 34.4887 43.2212 34.4695 43.3431 34.4512C43.3569 34.4491 43.3707 34.4468 43.3845 34.4448C43.6551 34.4044 43.9265 34.3685 44.1983 34.3368C44.3281 34.3217 44.4582 34.3081 44.5884 34.2955C44.9228 34.2635 45.258 34.2393 45.593 34.2168C45.653 34.2129 45.713 34.2087 45.773 34.2049C46.3156 34.1707 46.8584 34.1371 47.4014 34.1103C47.6291 34.0985 47.8568 34.0865 48.0845 34.0749C48.2651 34.0657 48.4458 34.0567 48.6265 34.0494C48.6436 34.0486 48.6606 34.0478 48.6776 34.047C49.0737 34.0314 49.4698 34.0157 49.8659 34.0001C50.2347 33.9865 50.6035 33.9728 50.9724 33.9593C51.3563 33.9451 51.7403 33.9309 52.1243 33.9167L50.4107 36.826L36.1415 37.1278ZM89.2208 10.2678C89.4927 10.5437 89.6026 10.9728 89.7069 11.333C89.8572 11.8525 89.961 12.3843 90.0567 12.9161C90.0891 13.0967 90.1186 13.2778 90.1486 13.4588C90.2053 13.8014 90.2597 14.1445 90.3108 14.4879C90.3917 15.0308 90.4659 15.5752 90.5292 16.1205C90.5621 16.4037 90.5916 16.6875 90.613 16.9718C90.6293 17.1903 90.646 17.4143 90.6189 17.6325C90.5921 17.8496 90.5115 18.0571 90.4559 18.2677C90.4011 18.4752 90.3644 18.685 90.3534 18.8994C90.3258 19.4373 90.3585 19.9831 90.3574 20.522C90.3563 21.0509 90.3638 21.5801 90.3566 22.109C90.3502 22.5842 90.3355 23.0387 90.4592 23.502C90.5154 23.7126 90.5958 23.9204 90.6206 24.1382C90.6462 24.3625 90.6282 24.5923 90.6105 24.8165C90.5674 25.3636 90.4991 25.9086 90.4259 26.4524C90.3485 27.0268 90.2593 27.5991 90.1695 28.1716C90.1628 28.2145 90.1555 28.2573 90.1486 28.3001C90.0751 28.7585 89.9929 29.2158 89.8953 29.6695C89.7904 30.1572 89.6737 30.6654 89.4614 31.1193C89.3391 31.3811 89.1651 31.6167 88.8681 31.6795C88.6968 31.7157 88.5173 31.7044 88.3445 31.6869C88.0805 31.6601 87.8174 31.6174 87.5557 31.573C87.0656 31.4901 86.5442 31.4027 86.088 31.1977C85.8782 31.1033 85.7081 30.9613 85.5325 30.8154C85.5351 30.811 85.538 30.8059 85.5406 30.8015C85.8092 30.3542 85.9832 29.8643 86.1215 29.3637C86.1228 29.359 86.1243 29.3544 86.1256 29.3497C86.1262 29.3477 86.1266 29.3456 86.1272 29.3436C86.1303 29.3321 86.1338 29.3206 86.1369 29.3091C86.1807 29.1475 86.2209 28.985 86.2594 28.8221C86.2734 28.7628 86.2867 28.7033 86.3001 28.6439C86.3255 28.5318 86.3498 28.4196 86.3732 28.3071C86.3875 28.238 86.4021 28.1689 86.4158 28.0996C86.4462 27.9458 86.4755 27.7917 86.5032 27.6373C86.5062 27.6208 86.5088 27.6041 86.5117 27.5875L86.5124 27.5834C86.5462 27.39 86.5778 27.1962 86.6079 27.0022C86.6084 26.999 86.6089 26.9957 86.6095 26.9925C86.6101 26.9886 86.6106 26.9847 86.6112 26.9808C86.6349 26.8273 86.6568 26.6736 86.6785 26.5199C86.6979 26.3797 86.7168 26.2394 86.735 26.0991C86.7397 26.0629 86.7447 26.0268 86.7493 25.9906C86.7505 25.9817 86.7514 25.9728 86.7525 25.9639C86.7761 25.779 86.7973 25.5938 86.8185 25.4085C86.8421 25.1986 86.8643 24.9885 86.8849 24.7783C86.8916 24.7097 86.8991 24.6412 86.9055 24.5726C86.9071 24.5564 86.9082 24.5401 86.9097 24.5239C86.9144 24.4714 86.9206 24.419 86.925 24.3665C86.9321 24.2839 86.9377 24.2011 86.9444 24.1185C86.953 24.0138 86.961 23.9091 86.969 23.8044C86.9987 23.4144 87.0256 23.0241 87.044 22.6334C87.0479 22.5498 87.0491 22.4662 87.0523 22.3825C87.0563 22.2937 87.0609 22.2049 87.0645 22.116C87.2474 22.1389 87.4356 22.1302 87.6177 22.1111C87.688 22.1037 87.76 22.0935 87.8266 22.0687C87.849 22.0604 87.8708 22.0504 87.8917 22.0383C88.0885 21.9241 88.0996 21.6802 88.1041 21.4779C88.1135 21.0407 88.1304 20.5918 88.0985 20.1554C88.0846 19.9659 88.038 19.7779 87.8456 19.6956C87.7546 19.6567 87.6527 19.6482 87.5553 19.6402C87.3924 19.6266 87.2271 19.6204 87.0645 19.6408V19.6408C87.0606 19.5444 87.0558 19.4482 87.0521 19.3517C87.0506 19.3136 87.0503 19.2754 87.0487 19.2373C87.0467 19.1906 87.044 19.1441 87.0418 19.0975C87.0415 19.091 87.0413 19.0845 87.041 19.078C87.0406 19.0702 87.04 19.0624 87.0396 19.0547C87.0297 18.8543 87.0183 18.6541 87.0053 18.454L87.005 18.4484C86.9921 18.2504 86.9777 18.0526 86.9621 17.8549C86.9605 17.8343 86.9588 17.8138 86.9572 17.7932C86.9501 17.703 86.9431 17.6128 86.9358 17.5226C86.9099 17.2058 86.878 16.8892 86.8434 16.5729L86.8433 16.5717C86.8259 16.4078 86.807 16.244 86.7877 16.0802C86.7822 16.0354 86.7779 15.9904 86.7722 15.9457C86.7719 15.9434 86.7717 15.9411 86.7714 15.9389C86.7697 15.9259 86.7679 15.9129 86.7663 15.8999C86.715 15.4811 86.6566 15.0631 86.5903 14.6464C86.5658 14.4894 86.5403 14.3325 86.5131 14.1758C86.5 14.0997 86.4856 14.0238 86.4717 13.9478C86.4653 13.9128 86.4592 13.8778 86.4526 13.8428C86.4456 13.8051 86.4383 13.7674 86.4311 13.7297C86.3418 13.2577 86.2368 12.7864 86.1024 12.3253C86.0738 12.2247 86.0439 12.1244 86.0118 12.0249C86.0048 12.0035 85.9977 11.9822 85.9906 11.9609C85.9788 11.9255 85.9677 11.8897 85.9554 11.8544C85.9516 11.8435 85.947 11.833 85.9431 11.8221C85.8498 11.5604 85.7398 11.3051 85.6025 11.0616C85.5799 11.0215 85.5561 10.9823 85.5323 10.9429V10.9415C85.7154 10.7893 85.8923 10.6436 86.1127 10.5483C86.3365 10.4516 86.5758 10.3892 86.8126 10.3332C87.3195 10.2133 87.8406 10.119 88.3593 10.0686C88.6617 10.0392 88.9927 10.0363 89.2208 10.2678ZM82.7234 6.01045C82.8054 6.01427 82.8873 6.0172 82.9692 6.02161C83.3002 6.03947 83.6495 6.04378 83.9738 6.11835C84.0282 6.13081 84.1302 6.1488 84.1251 6.22182C84.1202 6.29364 84.0035 6.35254 83.9503 6.38299C83.652 6.55352 83.3105 6.65854 82.9868 6.76918C82.8994 6.79908 82.8112 6.82702 82.7234 6.85593C82.1022 7.06054 81.4726 7.24271 80.8406 7.4102C80.1384 7.59629 79.4232 7.78967 78.6926 7.80158C77.8554 7.81525 77.0149 7.77069 76.1779 7.75171C75.4751 7.73583 74.7714 7.71123 74.0697 7.66689C73.9121 7.6552 73.7525 7.64681 73.5965 7.61924C73.5262 7.60677 73.4069 7.57964 73.5276 7.52823C73.5298 7.52727 73.5322 7.52661 73.5345 7.52566C73.6794 7.46497 73.8425 7.43228 73.9933 7.39145C74.3793 7.28687 74.7676 7.19079 75.1554 7.09338C75.854 6.9181 76.5576 6.75164 77.2635 6.60846C78.0554 6.44773 78.8503 6.304 79.6432 6.14857C79.9869 6.08128 80.3181 6.00153 80.6693 5.98564C81.064 5.96777 81.46 5.97439 81.8549 5.98123C82.0985 5.98543 82.342 5.99393 82.5854 6.00419C82.6314 6.00613 82.6774 6.00832 82.7234 6.01045ZM80.6693 35.7713C80.3181 35.7554 79.9869 35.6756 79.6432 35.6083C78.8503 35.4529 78.0554 35.3092 77.2635 35.1484C76.5576 35.0053 75.854 34.8388 75.1554 34.6635C74.7676 34.5661 74.3793 34.47 73.9933 34.3654C73.8425 34.3246 73.6794 34.2919 73.5345 34.2312C73.5322 34.2303 73.5298 34.2296 73.5276 34.2287C73.4069 34.1773 73.5262 34.1501 73.5965 34.1377C73.7525 34.11 73.9121 34.1016 74.0697 34.09C74.7714 34.0457 75.4751 34.0211 76.1779 34.0052C77.0149 33.9862 77.8554 33.9416 78.6926 33.9553C79.4232 33.9672 80.1384 34.1606 80.8406 34.3467C81.4727 34.5142 82.1023 34.6964 82.7236 34.901C82.8114 34.9299 82.8995 34.9578 82.9868 34.9877C83.3105 35.0984 83.652 35.2034 83.9503 35.3739C84.0035 35.4044 84.1202 35.4633 84.1251 35.5351C84.1302 35.6081 84.0282 35.6261 83.9738 35.6385C83.6495 35.7131 83.3002 35.7174 82.9692 35.7353C82.8874 35.7397 82.8055 35.7426 82.7236 35.7464C82.6776 35.7486 82.6315 35.7508 82.5854 35.7527C82.342 35.763 82.0985 35.7715 81.8549 35.7757C81.46 35.7825 81.064 35.7891 80.6693 35.7713ZM11.3402 38.3269C10.8272 38.315 10.3144 38.2399 9.81726 38.1139C9.317 37.9872 8.83086 37.8032 8.36634 37.5788C7.94043 37.373 7.52345 37.1344 7.17586 36.8101C6.78955 36.4497 6.45145 36.0288 6.12371 35.6157C5.78727 35.1915 5.47377 34.7512 5.19611 34.2861C4.91713 33.8189 4.67058 33.3325 4.4289 32.8451C4.31428 32.6139 4.19856 32.3819 4.09752 32.1443C4.04611 32.0237 3.98522 31.8882 3.98257 31.7538C3.97685 31.4683 4.25497 31.5947 4.40794 31.6903C4.64445 31.9369 4.9197 32.1542 5.1703 32.3657C5.6357 32.7585 6.10993 33.1418 6.58846 33.5185C7.10118 33.9221 7.61214 34.3287 8.12994 34.7257C8.65557 35.1288 9.18121 35.5317 9.71456 35.9245C10.2705 36.3339 10.834 36.7319 11.3987 37.1293C11.4458 37.1625 11.4882 37.201 11.5371 37.2247L11.561 37.2433C11.6597 37.3065 11.7553 37.3744 11.8486 37.4453C12.0172 37.5735 12.1926 37.7122 12.3208 37.8828C12.3795 37.9609 12.4396 38.0635 12.3703 38.1539C12.3213 38.2178 12.2371 38.2502 12.1543 38.27C12.1176 38.2789 12.0811 38.2855 12.0482 38.2909C11.8155 38.3289 11.5753 38.3324 11.3402 38.3269ZM3.99129 9.92816C4.03133 9.70709 4.14694 9.49585 4.24291 9.2953C4.38907 8.98996 4.53987 8.68705 4.69408 8.38568C4.97152 7.8435 5.27134 7.31169 5.6208 6.81242C5.98174 6.29672 6.38151 5.80694 6.80036 5.33734C7.18126 4.91033 7.59945 4.57896 8.10534 4.31035C8.62942 4.03215 9.1865 3.80888 9.76045 3.65775C10.3369 3.50596 10.9382 3.42135 11.5349 3.42885C11.624 3.43001 11.9349 3.42287 12.1591 3.48361L12.1532 3.48743C12.1552 3.48619 12.157 3.48485 12.1591 3.48361C12.3202 3.52733 12.4371 3.606 12.3927 3.74919C12.3373 3.92789 12.1335 4.08035 11.9983 4.19286C11.8597 4.30831 11.7121 4.41133 11.5639 4.5136C11.4996 4.55795 11.435 4.60237 11.3711 4.64734C10.8071 5.04424 10.2447 5.44224 9.68941 5.85127C9.1598 6.24133 8.63804 6.64187 8.11604 7.04208C7.60067 7.43721 7.09192 7.84172 6.58195 8.2438C6.09515 8.62758 5.61287 9.01786 5.1392 9.41774C4.90019 9.61949 4.64221 9.82765 4.41688 10.0612C4.32967 10.119 4.20246 10.1961 4.10061 10.1877C3.97629 10.1776 3.97441 10.021 3.99129 9.92816Z" fill="#75C2F6"/>
</svg>
